<?xml version="1.0" standalone="no"?>
<!DOCTYPE svg PUBLIC "-//W3C//DTD SVG 20010904//EN"
 "http://www.w3.org/TR/2001/REC-SVG-20010904/DTD/svg10.dtd">
<svg version="1.0" xmlns="http://www.w3.org/2000/svg"
 width="1024.000000pt" height="1024.000000pt" viewBox="0 0 1024.000000 1024.000000"
 preserveAspectRatio="xMidYMid meet">
<metadata>
Created by potrace 1.16, written by Peter Selinger 2001-2019
</metadata>
<g transform="translate(0.000000,1024.000000) scale(0.100000,-0.100000)"
fill="#000000" stroke="none">
<path d="M1735 8370 c-1 -3 -4 -914 -6 -2025 l-4 -2020 1999 -3 c1100 -1 2003
1 2007 5 4 5 9 916 10 2026 l3 2017 -2003 3 c-1102 1 -2004 0 -2006 -3z m2498
-290 l1187 0 0 -1729 0 -1729 -482 -6 c-266 -4 -1030 -6 -1698 -4 l-1215 3 1
295 c1 162 2 945 3 1739 l1 1444 508 -6 c279 -4 1041 -7 1695 -7z"/>
<path d="M3485 7651 c-21 -42 -146 -329 -220 -506 -34 -82 -106 -253 -160
-380 -54 -126 -127 -300 -162 -385 -36 -85 -113 -270 -173 -410 -59 -140 -172
-410 -251 -600 -78 -190 -155 -373 -170 -408 -16 -35 -29 -70 -29 -78 0 -20
602 -21 617 -1 6 6 36 77 67 157 31 80 80 202 109 272 l52 128 638 0 637 0 10
-27 c6 -16 56 -144 113 -285 l102 -258 307 0 307 0 -118 293 c-65 160 -155
380 -200 487 -45 107 -99 238 -121 290 -21 52 -93 224 -159 382 -66 158 -165
399 -220 535 -137 341 -328 792 -342 809 -9 11 -66 14 -315 14 l-303 0 -16
-29z m325 -654 c0 -7 48 -129 106 -272 58 -143 132 -327 166 -410 33 -82 77
-191 99 -242 21 -51 39 -94 39 -97 0 -4 -191 -6 -424 -6 l-424 0 43 103 c23
56 80 194 127 307 124 296 248 607 248 619 0 6 5 11 10 11 6 0 10 -6 10 -13z"/>
<path d="M6194 8365 c-2 -5 -3 -917 -2 -2025 l3 -2015 1133 -3 1132 -3 0 375
c0 207 -1 378 -2 381 -2 3 -375 5 -830 5 l-828 0 0 525 0 525 693 2 692 3 3
307 2 308 -697 2 -698 3 0 505 0 505 833 3 832 2 -2 300 -3 300 -1129 3 c-745
1 -1130 -1 -1132 -8z"/>
<path d="M2452 3589 c-59 -11 -102 -38 -130 -80 -21 -29 -23 -43 -20 -103 3
-62 7 -71 33 -92 41 -33 99 -59 165 -74 83 -19 120 -45 120 -84 0 -70 -65
-105 -159 -85 -57 12 -78 29 -93 71 -8 24 -16 28 -45 28 l-36 0 6 -52 c7 -60
29 -94 78 -123 51 -30 198 -29 256 3 56 29 83 81 83 159 0 98 -32 132 -163
173 -34 11 -80 30 -102 43 -34 19 -40 28 -43 60 -3 34 0 39 31 52 66 27 167
-4 167 -52 0 -9 15 -13 50 -13 59 0 62 9 27 80 -34 70 -130 108 -225 89z"/>
<path d="M2882 3592 l-42 -3 2 -307 3 -307 45 0 45 0 3 304 c1 168 -1 307 -5
310 -5 3 -27 5 -51 3z"/>
<path d="M5172 3582 c-75 -24 -119 -64 -154 -137 -26 -57 -29 -73 -29 -164 0
-114 15 -161 71 -225 53 -60 102 -81 190 -80 130 0 209 62 218 170 l4 54 -41
0 c-25 0 -43 -5 -45 -12 -20 -77 -45 -103 -110 -118 -89 -20 -175 43 -196 145
-15 72 -2 174 28 214 81 110 252 87 252 -34 0 -29 12 -37 57 -40 43 -3 50 11
34 78 -15 65 -49 110 -103 135 -63 30 -115 34 -176 14z"/>
<path d="M5742 3581 c-29 -10 -67 -31 -83 -47 -71 -67 -105 -188 -90 -312 11
-85 42 -144 103 -196 102 -88 261 -68 345 42 45 59 58 111 57 227 0 87 -4 106
-26 150 -62 120 -190 177 -306 136z m159 -104 c18 -12 44 -38 57 -57 22 -32
23 -43 20 -142 -3 -118 -13 -142 -78 -185 -73 -50 -188 -14 -227 71 -27 60
-24 187 5 243 20 38 56 72 92 86 37 14 98 6 131 -16z"/>
<path d="M6957 3582 c-68 -24 -111 -63 -141 -126 -87 -184 -22 -418 130 -470
72 -24 133 -21 195 12 105 55 155 160 147 310 -3 68 -10 98 -30 138 -35 67
-95 119 -159 138 -65 20 -82 19 -142 -2z m120 -93 c34 -13 80 -55 99 -91 9
-17 14 -60 15 -117 1 -76 -3 -97 -22 -131 -35 -61 -77 -83 -150 -78 -51 4 -64
9 -94 38 -42 40 -55 82 -55 171 0 79 14 124 49 163 46 50 102 66 158 45z"/>
<path d="M8090 3580 c0 -26 26 -78 109 -215 l66 -110 5 -140 5 -140 43 -3 42
-3 0 135 0 135 50 75 c78 118 154 266 143 277 -6 6 -28 9 -49 7 -34 -3 -40 -8
-67 -58 -17 -30 -47 -82 -69 -114 -21 -33 -38 -66 -38 -73 0 -26 -15 -12 -33
30 -10 23 -43 80 -75 127 -53 79 -60 85 -95 87 -32 3 -37 0 -37 -17z"/>
<path d="M1890 3554 c-6 -14 -10 -29 -10 -33 0 -10 -109 -332 -149 -440 -17
-47 -31 -90 -31 -96 0 -11 78 -14 95 -3 6 4 19 38 30 77 l19 72 115 -3 115 -3
21 -67 c12 -37 24 -70 28 -74 3 -3 27 -7 52 -8 56 -2 58 -21 -24 214 -34 96
-79 223 -99 283 l-37 107 -58 0 c-53 0 -58 -2 -67 -26z m80 -115 c0 -11 15
-64 34 -119 l35 -98 -77 -4 c-42 -2 -78 -3 -80 -2 -2 1 8 40 22 85 14 46 30
103 36 127 11 42 30 49 30 11z"/>
<path d="M3225 3518 c-10 -35 -51 -163 -92 -285 -40 -122 -73 -232 -73 -243 0
-19 5 -21 47 -18 l47 3 16 75 16 75 111 3 c100 2 112 1 116 -15 3 -10 11 -40
17 -68 7 -27 16 -54 20 -58 5 -5 29 -10 55 -12 43 -3 47 -1 42 19 -4 20 -127
374 -178 516 l-24 65 -51 3 -50 3 -19 -63z m107 -161 c43 -145 45 -139 -34
-139 -38 0 -69 3 -69 6 -3 11 65 226 71 226 3 0 17 -42 32 -93z"/>
<path d="M3662 3278 l3 -303 45 0 45 0 0 203 c0 111 2 202 5 202 3 -1 39 -53
82 -118 42 -64 102 -154 133 -199 55 -80 58 -83 96 -83 l39 0 0 301 0 300 -47
-3 -48 -3 -3 -178 c-1 -98 2 -194 7 -213 13 -48 -1 -42 -33 14 -35 62 -122
197 -192 300 -55 79 -58 82 -96 82 l-38 0 2 -302z"/>
<path d="M4500 3280 l0 -300 195 0 195 0 0 50 0 50 -150 0 -150 0 0 80 0 79
133 3 132 3 3 43 3 42 -135 0 -136 0 0 80 0 80 150 0 150 0 0 45 0 45 -195 0
-195 0 0 -300z"/>
<path d="M6210 3578 c0 -2 0 -138 -1 -303 l0 -300 45 -3 46 -3 2 213 c3 176 5
208 15 186 7 -15 64 -104 127 -199 64 -95 117 -176 118 -181 4 -12 88 -18 88
-7 0 5 0 141 0 302 l1 292 -43 0 -43 0 0 -212 c0 -168 -3 -209 -12 -201 -7 6
-13 15 -13 20 0 5 -51 87 -113 181 -63 95 -119 182 -126 195 -9 17 -20 22 -51
22 -22 0 -40 -1 -40 -2z"/>
<path d="M7430 3576 c-3 -2 -4 -140 -2 -306 l3 -301 42 3 42 3 0 212 c0 116 3
209 7 207 4 -3 12 -19 17 -37 5 -18 34 -97 65 -177 l55 -145 34 -3 35 -3 47
123 c78 201 104 264 105 253 1 -5 1 -106 0 -223 l-1 -213 43 3 43 3 3 303 2
302 -58 0 -58 0 -79 -200 c-43 -110 -81 -197 -84 -194 -3 3 -38 92 -77 197
l-71 192 -54 3 c-30 2 -57 1 -59 -2z"/>
<path d="M6457 2622 l-37 -3 2 -307 3 -307 40 0 40 0 3 304 c1 168 -1 307 -5
310 -5 4 -25 5 -46 3z"/>
<path d="M4104 2606 c-2 -6 -5 -102 -6 -214 l-3 -204 -82 124 c-46 68 -109
162 -140 210 l-58 88 -43 -3 -42 -2 -3 -298 c-1 -163 0 -297 3 -298 47 -5 82
-4 86 3 3 5 5 103 4 218 0 116 1 210 4 210 2 0 14 -19 26 -42 25 -48 51 -87
173 -263 l84 -120 44 0 44 0 0 293 c0 162 -4 296 -9 299 -17 11 -78 10 -82 -1z"/>
<path d="M4514 2606 c-2 -6 -19 -51 -37 -101 -19 -49 -62 -175 -96 -280 -34
-104 -65 -196 -68 -203 -4 -10 7 -12 48 -10 l53 3 22 70 22 70 108 3 109 3 21
-73 21 -73 53 -3 c47 -3 52 -1 45 15 -19 45 -92 253 -142 403 -30 91 -58 169
-62 173 -13 13 -92 16 -97 3z m61 -148 c4 -18 17 -70 31 -114 13 -45 24 -85
24 -88 0 -3 -31 -6 -70 -6 -38 0 -70 2 -70 4 0 3 14 45 30 94 17 50 30 102 30
116 0 37 17 32 25 -6z"/>
<path d="M4940 2613 c0 -5 -2 -142 -5 -306 l-6 -297 197 2 198 3 2 43 c1 26
-2 42 -9 43 -7 1 -73 2 -147 3 l-135 1 -3 258 -2 257 -45 0 c-25 0 -45 -3 -45
-7z"/>
<path d="M5297 2613 c-7 -6 98 -211 154 -304 28 -45 29 -51 29 -178 l0 -131
45 0 45 0 0 131 0 131 79 128 c84 135 121 202 121 220 0 5 -19 10 -43 10 -44
0 -44 0 -97 -82 -29 -46 -62 -102 -72 -125 -10 -24 -20 -43 -22 -43 -1 0 -36
56 -77 125 l-74 125 -41 0 c-22 0 -44 -3 -47 -7z"/>
<path d="M5977 2606 c-77 -21 -117 -71 -117 -146 0 -91 48 -140 175 -179 144
-45 181 -85 135 -144 -55 -70 -210 -50 -241 31 -7 18 -16 22 -49 22 l-41 0 7
-37 c16 -91 80 -142 189 -150 103 -9 184 27 220 98 18 33 20 132 4 162 -25 46
-87 83 -192 116 -101 31 -107 36 -107 81 0 49 23 64 97 63 63 0 100 -22 105
-60 3 -26 6 -28 53 -28 l50 0 -3 34 c-4 59 -30 98 -78 122 -55 26 -144 33
-207 15z"/>
<path d="M6786 2610 c-85 -22 -126 -75 -126 -163 0 -41 6 -62 22 -83 34 -44
54 -56 164 -95 140 -51 144 -53 144 -94 0 -50 -36 -75 -112 -75 -72 0 -112 19
-126 60 -10 27 -15 30 -51 30 -39 0 -41 -2 -41 -30 0 -63 57 -130 128 -150 91
-25 217 2 263 56 38 45 49 130 25 188 -17 41 -71 74 -171 106 -38 13 -87 31
-107 42 -33 16 -38 23 -38 52 0 59 49 84 135 72 45 -7 70 -27 77 -61 3 -17 12
-21 57 -23 l53 -3 -7 38 c-9 51 -39 89 -88 115 -47 24 -142 32 -201 18z"/>
<path d="M3280 2528 c-18 -46 -43 -119 -55 -163 -13 -44 -44 -138 -69 -210
-25 -71 -46 -133 -46 -137 0 -5 22 -8 49 -8 55 0 52 -3 81 108 l11 43 111 -3
111 -3 21 -72 21 -73 53 0 c48 0 53 2 47 18 -4 9 -49 143 -100 297 l-91 280
-56 3 -56 3 -32 -83z m118 -143 c17 -55 33 -108 37 -117 6 -16 -1 -18 -75 -18
-61 0 -80 3 -77 13 3 6 22 61 42 120 20 60 38 107 40 105 2 -2 16 -48 33 -103z"/>
</g>
</svg>
